HIERARCHY
ROOT Hips
{
	OFFSET 0.00000 0.00000 0.00000
	CHANNELS 6 Xposition Yposition Zposition Zrotation Yrotation Xrotation 
	JOINT RightUpLegDummy
	{
		OFFSET 0 0 0
		CHANNELS 3 Zrotation Yrotation Xrotation
		JOINT RightUpLeg
		{
			OFFSET -3.52197 -3.41223 0.04002
			CHANNELS 3 Zrotation Yrotation Xrotation
			JOINT RightLeg
			{
				OFFSET -0.86543 -13.06008 -1.28655
				CHANNELS 3 Zrotation Yrotation Xrotation
				JOINT RightFoot
				{
					OFFSET -0.80713 -17.13930 -1.70707
					CHANNELS 3 Zrotation Yrotation Xrotation
					JOINT RightToes
					{
						OFFSET 0.00299 -1.73822 4.71938
						CHANNELS 3 Zrotation Yrotation Xrotation
						End Site
						{
							OFFSET 0.00480 -0.05414 3.03243
						}
					}
				}
			}
		}
	}
	JOINT SpineDummy
	{
		OFFSET 0 0 0
		CHANNELS 3 Zrotation Yrotation Xrotation
		JOINT Spine
		{
			OFFSET 0.00000 6.04702 0.41770
			CHANNELS 3 Zrotation Yrotation Xrotation
			JOINT Spine1
			{
				OFFSET -0.00002 10.39992 -1.69721
				CHANNELS 3 Zrotation Yrotation Xrotation
				JOINT HEadDummy
				{
					OFFSET 0 0 0
					CHANNELS 3 Zrotation Yrotation Xrotation
					JOINT Head
					{
						OFFSET -0.00001 3.43865 0.00443
						CHANNELS 3 Zrotation Yrotation Xrotation
						End Site
						{
							OFFSET -0.11418 5.02923 0.98969
						}
					}
				}
				JOINT LeftShoulder1Dummy
				{
					OFFSET 0 0 0
					CHANNELS 3 Zrotation Yrotation Xrotation
					JOINT LeftShoulder1
					{
						OFFSET 1.21361 -0.14262 -0.08662
						CHANNELS 3 Zrotation Yrotation Xrotation
						JOINT LeftArm
						{
							OFFSET 4.40875 -0.00132 0.12681
							CHANNELS 3 Zrotation Yrotation Xrotation
							JOINT LeftForeArm
							{
								OFFSET 8.94813 -0.09821 0.13217
								CHANNELS 3 Zrotation Yrotation Xrotation
								JOINT LeftHand
								{
									OFFSET 9.82063 -0.16591 0.14506
									CHANNELS 3 Zrotation Yrotation Xrotation
									End Site
									{
										OFFSET 7.19303 -0.20851 0.19067
									}
								}
							}
						}
					}
				}
				JOINT RightShoulderDummy
				{
					OFFSET 0 0 0
					CHANNELS 3 Zrotation Yrotation Xrotation
					JOINT RightShoulder
					{
						OFFSET -1.26534 -0.14262 -0.08661
						CHANNELS 3 Zrotation Yrotation Xrotation
						JOINT RightArm
						{
							OFFSET -4.30809 -0.00133 0.12683
							CHANNELS 3 Zrotation Yrotation Xrotation
							JOINT RightForeArm
							{
								OFFSET -8.99705 -0.09841 0.13211
								CHANNELS 3 Zrotation Yrotation Xrotation
								JOINT RightHand
								{
									OFFSET -9.82077 -0.16576 0.14421
									CHANNELS 3 Zrotation Yrotation Xrotation
									End Site
									{
										OFFSET -7.19310 -0.20866 0.18995
									}
								}
							}
						}
					}
				}
			}
		}
	}
	JOINT LeftUpLegDummy
	{
		OFFSET 0 0 0
		CHANNELS 3 Zrotation Yrotation Xrotation
		JOINT LeftUpLeg
		{
			OFFSET 3.52197 -3.41223 0.04002
			CHANNELS 3 Zrotation Yrotation Xrotation
			JOINT LeftLeg
			{
				OFFSET 0.94774 -13.07381 -1.28759
				CHANNELS 3 Zrotation Yrotation Xrotation
				JOINT LeftFoot
				{
					OFFSET 0.72832 -17.13147 -1.70602
					CHANNELS 3 Zrotation Yrotation Xrotation
					JOINT LeftToes
					{
						OFFSET -0.01574 -1.73820 4.71935
						CHANNELS 3 Zrotation Yrotation Xrotation
						End Site
						{
							OFFSET 0.03150 -0.01866 3.03230
						}
					}
				}
			}
		}
	}
}
MOTION
Frames: 6
Frame Time: 0.033333
-1.7607 39.1884 14.9732 -0.3414 1.0896 2.5292 0.0000 0.0000 0.0000 3.5959 -1.7085 -12.6259 0.2321 4.0821 13.3175 -3.1597 0.0401 13.7182 0.0000 0.0000 0.0000 0.0000 0.0000 0.0000 1.2995 -0.0851 -4.4897 -2.5136 0.0843 0.1366 -0.0000 0.0000 0.0000 -0.7171 -1.6631 5.3149 -0.0000 0.0000 0.0000 -3.7125 3.9119 -0.0480 19.7738 -22.1754 -55.5337 6.1345 -1.2155 58.0246 8.7119 -10.2570 -1.0860 -0.0000 0.0000 0.0000 4.2565 -3.5101 -0.0003 -24.0598 6.9968 -30.1613 5.1207 0.6572 32.9598 -12.3941 10.2152 -1.4684 0.0000 0.0000 0.0000 -2.2704 1.6601 -11.5649 0.6784 0.7499 13.3544 1.5405 0.2181 12.5523 -0.0000 0.0000 0.0000
-1.7506 39.1884 14.9822 -0.3737 1.0911 2.5015 0.0000 0.0000 0.0000 3.5947 -1.7439 -12.5708 0.2702 4.1423 13.2960 -3.0557 0.0174 13.7078 0.0000 0.0000 0.0000 0.0000 0.0000 0.0000 1.3352 -0.0847 -4.4418 -2.5688 0.0886 0.1398 -0.0000 0.0000 0.0000 -0.6372 -1.6668 5.3722 -0.0000 0.0000 0.0000 -3.9342 3.8774 -0.0446 19.9897 -22.0860 -55.5359 6.1075 -1.2170 58.0909 8.6870 -10.3201 -1.0893 -0.0000 0.0000 0.0000 4.3039 -3.5081 -0.0003 -24.0978 6.9479 -30.0299 5.2012 0.6543 32.8331 -12.3619 10.1798 -1.4606 0.0000 0.0000 0.0000 -2.2456 1.6614 -11.5437 0.6821 0.7206 13.3941 1.4124 0.2431 12.4902 -0.0000 0.0000 0.0000
-1.7422 39.1884 14.9940 -0.3829 1.1192 2.4729 0.0000 0.0000 0.0000 3.6046 -1.7689 -12.5184 0.2890 4.1394 13.2740 -3.4677 0.1068 13.7832 0.0000 0.0000 0.0000 0.0000 0.0000 0.0000 1.2613 -0.0602 -4.3988 -2.4625 0.0988 -0.0454 -0.0000 0.0000 0.0000 -0.6567 -1.7427 5.5002 -0.0000 0.0000 0.0000 -4.1334 3.7254 -0.0269 20.0751 -21.8821 -55.4235 6.0387 -1.2144 57.9662 8.4567 -10.1916 -1.0532 -0.0000 0.0000 0.0000 4.3085 -3.5118 -0.0014 -24.0474 6.8746 -30.1625 5.0911 0.6585 33.0183 -12.3403 10.1659 -1.4566 0.0000 0.0000 0.0000 -2.2393 1.6946 -11.4830 0.6534 0.6678 13.3750 1.4140 0.2424 12.4805 -0.0000 0.0000 0.0000
-1.7261 39.1884 15.0155 -0.4888 1.1108 2.6117 0.0000 0.0000 0.0000 3.6472 -1.7762 -12.5720 0.3022 4.0971 13.1882 -3.1056 0.0277 13.7385 0.0000 0.0000 0.0000 0.0000 0.0000 0.0000 1.4049 -0.0038 -4.6995 -2.8096 0.1924 0.3784 -0.0000 0.0000 0.0000 -0.6405 -1.8378 5.3649 -0.0000 0.0000 0.0000 -4.0849 3.6250 -0.0147 19.9477 -21.8590 -55.2501 5.9169 -1.2095 57.7318 8.4368 -10.1314 -1.0455 -0.0000 0.0000 0.0000 4.3461 -3.5620 -0.0072 -23.8905 6.6227 -29.8956 5.1772 0.6536 32.8004 -12.4174 10.2467 -1.4749 0.0000 0.0000 0.0000 -2.1470 1.6991 -11.6455 0.6495 0.6918 13.4649 1.4241 0.2385 12.4215 -0.0000 0.0000 0.0000
-1.7173 39.1884 15.0312 -0.5237 1.1197 2.6250 0.0000 0.0000 0.0000 3.6475 -1.8481 -12.5324 0.3743 4.1745 13.1364 -3.2271 0.0540 13.7661 0.0000 0.0000 0.0000 0.0000 0.0000 0.0000 1.4294 0.0180 -4.7825 -2.8958 0.2279 0.5725 -0.0000 0.0000 0.0000 -0.5403 -1.9604 5.3843 -0.0000 0.0000 0.0000 -4.0881 3.6263 -0.0148 19.9143 -21.8889 -55.1590 5.8295 -1.2049 57.5137 8.7484 -10.0175 -1.0673 -0.0000 0.0000 0.0000 4.3540 -3.6229 -0.0150 -23.7720 6.5345 -29.7618 5.2450 0.6479 32.5491 -12.3881 10.1479 -1.4593 0.0000 0.0000 0.0000 -2.1370 1.6933 -11.6299 0.6696 0.6950 13.4600 1.4420 0.2340 12.3966 -0.0000 0.0000 0.0000
-1.7180 39.1885 15.0428 -0.4808 1.1722 2.6039 0.0000 0.0000 0.0000 3.6288 -1.8321 -12.5086 0.3766 4.1666 13.1681 -3.5004 0.1137 13.8014 0.0000 0.0000 0.0000 0.0000 0.0000 0.0000 1.2541 0.0337 -4.7657 -2.5737 0.2148 0.5270 -0.0000 0.0000 0.0000 -0.4756 -2.0882 5.3468 -0.0000 0.0000 0.0000 -4.0072 3.7412 -0.0285 19.7612 -22.0622 -55.2513 5.9082 -1.2057 57.5538 8.6019 -10.0941 -1.0593 -0.0000 0.0000 0.0000 4.3774 -3.6262 -0.0165 -23.7510 6.4697 -29.8353 5.1753 0.6482 32.5553 -12.4782 10.1913 -1.4743 0.0000 0.0000 0.0000 -2.1857 1.7405 -11.5972 0.6307 0.5698 13.4603 1.5629 0.2091 12.4065 -0.0000 0.0000 0.0000
